<?xml version="1.0" encoding="UTF-8"?>
<svg version="1.1" xmlns="http://www.w3.org/2000/svg" width="700" height="320">
<path d="M0 0 C231 0 462 0 700 0 C700 105.6 700 211.2 700 320 C469 320 238 320 0 320 C0 214.4 0 108.8 0 0 Z " fill="#24695C" transform="translate(0,0)"/>
<path d="M0 0 C0.70125 0.144375 1.4025 0.28875 2.125 0.4375 C3.07375 0.623125 4.0225 0.80875 5 1 C6.051875 1.20625 7.10375 1.4125 8.1875 1.625 C10.94643572 2.26074106 10.94643572 2.26074106 13 1 C21.57892159 1 28.86862576 4.40939316 36 9 C37.8557718 10.9083717 39.39379859 12.86544287 41 15 C40.484375 14.731875 39.96875 14.46375 39.4375 14.1875 C36.33598585 12.67650593 33.17737194 11.34427274 30 10 C29.62875 10.8971875 29.62875 10.8971875 29.25 11.8125 C27.83629988 14.28647521 26.34944617 15.43370255 24 17 C25.66666667 13.66666667 27.33333333 10.33333333 29 7 C22.49141526 4.59494885 16.82672278 3.04950778 10 5 C7.61640153 6.13036629 6.0439735 7.27048397 4 9 C4 9.66 4 10.32 4 11 C5.32 9.68 6.64 8.36 8 7 C8.99 7.33 9.98 7.66 11 8 C10.34 10.31 9.68 12.62 9 15 C9.66 15 10.32 15 11 15 C11.33 13.02 11.66 11.04 12 9 C12.2165625 9.928125 12.2165625 9.928125 12.4375 10.875 C12.93152225 13.03258322 12.93152225 13.03258322 14 15 C14.33 13.68 14.66 12.36 15 11 C15.99 11 16.98 11 18 11 C18.99 10.67 19.98 10.34 21 10 C21.33 9.34 21.66 8.68 22 8 C22.66 8 23.32 8 24 8 C23.34 9.32 22.68 10.64 22 12 C21.01 12 20.02 12 19 12 C19.495 14.475 19.495 14.475 20 17 C16.37 17 12.74 17 9 17 C9.495 24.92 9.495 24.92 10 33 C11.753125 32.34 13.50625 31.68 15.3125 31 C18.46034008 29.81493079 20.62534314 29 24 29 C24 29.99 24 30.98 24 32 C24.66 32 25.32 32 26 32 C26 36.95 26 41.9 26 47 C26.66 47 27.32 47 28 47 C28 47.66 28 48.32 28 49 C26.44628906 50.2175293 26.44628906 50.2175293 24.265625 51.57421875 C23.06099609 52.32928711 23.06099609 52.32928711 21.83203125 53.09960938 C20.97996094 53.62361328 20.12789063 54.14761719 19.25 54.6875 C18.04150391 55.44450195 18.04150391 55.44450195 16.80859375 56.21679688 C15.10961664 57.27497868 13.39758507 58.31240452 11.67504883 59.33178711 C8.97067124 60.9497006 8.97067124 60.9497006 6.54956055 62.93579102 C-3.7287571 70.40446802 -15.52863647 68.83600141 -27.6875 68.5625 C-29.89776385 68.54449609 -32.10805435 68.529501 -34.31835938 68.51757812 C-46.33018556 68.40508583 -58.11385313 67.75517367 -70 66 C-69.67 65.34 -69.34 64.68 -69 64 C-68.34 64 -67.68 64 -67 64 C-67 61.69 -67 59.38 -67 57 C-66.67 57 -66.34 57 -66 57 C-65.87625 57.969375 -65.7525 58.93875 -65.625 59.9375 C-65.41875 60.948125 -65.2125 61.95875 -65 63 C-64.34 63.33 -63.68 63.66 -63 64 C-63.24556641 62.78957031 -63.24556641 62.78957031 -63.49609375 61.5546875 C-64.08897993 57.37231212 -64.10894252 53.34055182 -64.0625 49.125 C-64.05798828 48.34125 -64.05347656 47.5575 -64.04882812 46.75 C-64.03714093 44.83329986 -64.01920908 42.91663952 -64 41 C-64.99 41 -65.98 41 -67 41 C-67 45.62 -67 50.24 -67 55 C-67.33 55 -67.66 55 -68 55 C-68 51.04 -68 47.08 -68 43 C-74.27 43 -80.54 43 -87 43 C-87 42.67 -87 42.34 -87 42 C-80.73 42 -74.46 42 -68 42 C-68 41.01 -68 40.02 -68 39 C-66.68 39 -65.36 39 -64 39 C-64 35.37 -64 31.74 -64 28 C-63.67 28 -63.34 28 -63 28 C-62.67 31.63 -62.34 35.26 -62 39 C-60.98679687 39.03738281 -59.97359375 39.07476562 -58.9296875 39.11328125 C-57.57809061 39.17898388 -56.22652971 39.24542971 -54.875 39.3125 C-54.20984375 39.33505859 -53.5446875 39.35761719 -52.859375 39.38085938 C-48.20401044 39.63188393 -45.05801091 40.7865395 -41 43 C-36.84314368 43.40753493 -35.52910353 43.35273568 -32 41 C-29.9152832 40.77294922 -29.9152832 40.77294922 -27.55078125 40.8046875 C-26.27944336 40.81435547 -26.27944336 40.81435547 -24.98242188 40.82421875 C-24.10134766 40.84097656 -23.22027344 40.85773438 -22.3125 40.875 C-20.97348633 40.88853516 -20.97348633 40.88853516 -19.60742188 40.90234375 C-17.40483334 40.92590085 -15.20238275 40.96177156 -13 41 C-13 37.37 -13 33.74 -13 30 C-14.21623047 30.01740234 -14.21623047 30.01740234 -15.45703125 30.03515625 C-16.56433594 30.04417969 -17.67164063 30.05320313 -18.8125 30.0625 C-19.89144531 30.07410156 -20.97039062 30.08570313 -22.08203125 30.09765625 C-25.1529638 30.02111257 -28.11261631 29.82259889 -31.1640625 29.5234375 C-38.37299886 28.82496178 -45.59235382 28.65979587 -52.83007812 28.48242188 C-53.85681641 28.44826172 -54.88355469 28.41410156 -55.94140625 28.37890625 C-57.32888062 28.34132202 -57.32888062 28.34132202 -58.74438477 28.30297852 C-61 28 -61 28 -63 26 C-54.585 25.505 -54.585 25.505 -46 25 C-46 21.04 -46 17.08 -46 13 C-45.34 13 -44.68 13 -44 13 C-43.67 11.02 -43.34 9.04 -43 7 C-44.65 7 -46.3 7 -48 7 C-47 4 -47 4 -44.1875 2.3125 C-35.26864078 -1.09122791 -26.87886854 0.90977243 -18.3984375 4.515625 C-16 6 -16 6 -14.96484375 8.12890625 C-14.64644531 8.74636719 -14.32804687 9.36382812 -14 10 C-11.75204379 10.66715259 -11.75204379 10.66715259 -9.1875 10.6875 C-7.85138672 10.76871094 -7.85138672 10.76871094 -6.48828125 10.8515625 C-5.25658203 10.92503906 -5.25658203 10.92503906 -4 11 C-2.32721001 11.3011022 -0.65521178 11.61378392 1 12 C1.309375 11.21625 1.61875 10.4325 1.9375 9.625 C3 7 3 7 4 5 C2.68 4.34 1.36 3.68 0 3 C0 2.01 0 1.02 0 0 Z " fill="#719D95" transform="translate(360,134)"/>
<path d="M0 0 C0.70125 0.144375 1.4025 0.28875 2.125 0.4375 C3.07375 0.623125 4.0225 0.80875 5 1 C6.051875 1.20625 7.10375 1.4125 8.1875 1.625 C10.94643572 2.26074106 10.94643572 2.26074106 13 1 C21.57892159 1 28.86862576 4.40939316 36 9 C37.8557718 10.9083717 39.39379859 12.86544287 41 15 C40.484375 14.731875 39.96875 14.46375 39.4375 14.1875 C36.33598585 12.67650593 33.17737194 11.34427274 30 10 C29.62875 10.8971875 29.62875 10.8971875 29.25 11.8125 C27.83629988 14.28647521 26.34944617 15.43370255 24 17 C25.66666667 13.66666667 27.33333333 10.33333333 29 7 C22.49141526 4.59494885 16.82672278 3.04950778 10 5 C7.61640153 6.13036629 6.0439735 7.27048397 4 9 C4 9.66 4 10.32 4 11 C5.32 9.68 6.64 8.36 8 7 C8.99 7.33 9.98 7.66 11 8 C10.34 10.31 9.68 12.62 9 15 C9.66 15 10.32 15 11 15 C11.33 13.02 11.66 11.04 12 9 C12.144375 9.61875 12.28875 10.2375 12.4375 10.875 C12.93152225 13.03258322 12.93152225 13.03258322 14 15 C14.33 13.68 14.66 12.36 15 11 C15.99 11 16.98 11 18 11 C18.99 10.67 19.98 10.34 21 10 C21.33 9.34 21.66 8.68 22 8 C22.66 8 23.32 8 24 8 C23.34 9.32 22.68 10.64 22 12 C21.01 12 20.02 12 19 12 C19.495 14.475 19.495 14.475 20 17 C16.37 17 12.74 17 9 17 C9.11339204 19.64680904 9.24012873 22.29177518 9.375 24.9375 C9.4059375 25.69224609 9.436875 26.44699219 9.46875 27.22460938 C9.5726315 29.15507395 9.77895614 31.07942081 10 33 C10.99 33.495 10.99 33.495 12 34 C9.54379149 35.17133058 7.08525083 36.33721722 4.625 37.5 C3.92632812 37.83386719 3.22765625 38.16773438 2.5078125 38.51171875 C-2.7734375 41 -2.7734375 41 -5 41 C-5.495 41.99 -5.495 41.99 -6 43 C-7.98 42.34 -9.96 41.68 -12 41 C-12 37.04 -12 33.08 -12 29 C-23.55 28.34 -35.1 27.68 -47 27 C-46.67 26.34 -46.34 25.68 -46 25 C-45.92934383 22.95944995 -45.91578024 20.91665743 -45.9375 18.875 C-45.94652344 17.77929688 -45.95554687 16.68359375 -45.96484375 15.5546875 C-45.97644531 14.71164063 -45.98804688 13.86859375 -46 13 C-45.34 13 -44.68 13 -44 13 C-43.67 11.02 -43.34 9.04 -43 7 C-44.65 7 -46.3 7 -48 7 C-47 4 -47 4 -44.1875 2.3125 C-35.26864078 -1.09122791 -26.87886854 0.90977243 -18.3984375 4.515625 C-16 6 -16 6 -14.96484375 8.12890625 C-14.48724609 9.05509766 -14.48724609 9.05509766 -14 10 C-11.75204379 10.66715259 -11.75204379 10.66715259 -9.1875 10.6875 C-8.29675781 10.74164063 -7.40601563 10.79578125 -6.48828125 10.8515625 C-5.25658203 10.92503906 -5.25658203 10.92503906 -4 11 C-2.32721001 11.3011022 -0.65521178 11.61378392 1 12 C1.309375 11.21625 1.61875 10.4325 1.9375 9.625 C3 7 3 7 4 5 C2.68 4.34 1.36 3.68 0 3 C0 2.01 0 1.02 0 0 Z " fill="#2E7063" transform="translate(360,134)"/>
<path d="M0 0 C4.14641281 3.67253706 6.90346983 6.91378506 7.6875 12.5 C7.15058181 16.19131254 5.84213335 18.62823329 4.1875 21.9375 C4.50552943 23.60715451 4.83734951 25.27428518 5.1875 26.9375 C3.75 29.25 3.75 29.25 2.1875 30.9375 C1.1975 30.6075 0.2075 30.2775 -0.8125 29.9375 C0.1775 29.2775 1.1675 28.6175 2.1875 27.9375 C2.91715366 25.37467258 2.91715366 25.37467258 3.1875 22.9375 C1.21993548 22.96872943 1.21993548 22.96872943 -0.8125 23.9375 C-2.1170656 26.93365946 -2.1170656 26.93365946 -2.8125 29.9375 C-4.5625 29.8125 -4.5625 29.8125 -6.8125 28.9375 C-7.286875 27.926875 -7.76125 26.91625 -8.25 25.875 C-10.48902245 22.67728961 -10.48902245 22.67728961 -13.67578125 22.47265625 C-20.0650374 22.40633179 -25.69806089 23.1905174 -31.8125 24.9375 C-33.47872645 24.97580406 -35.14645849 24.98314497 -36.8125 24.9375 C-33.80207054 33.75169011 -30.43940506 40.62404747 -21.8125 44.9375 C-17.62631401 45.36516537 -13.93009379 45.38453752 -10 43.8125 C-7.30777977 41.50488266 -5.62961181 38.96601968 -3.8125 35.9375 C-3.4825 36.9275 -3.1525 37.9175 -2.8125 38.9375 C-1.79800781 38.87691406 -0.78351563 38.81632812 0.26171875 38.75390625 C11.33852251 39.27192593 20.71055214 47.44705584 28.1875 54.9375 C28.79851562 55.47761719 29.40953125 56.01773438 30.0390625 56.57421875 C37.27644318 63.13412772 43.46234004 72.98469889 47.1875 81.9375 C46.875 84.3125 46.875 84.3125 46.1875 85.9375 C45.71441406 84.91011719 45.24132812 83.88273437 44.75390625 82.82421875 C40.52236917 73.86809737 35.95728492 66.27451645 29.1875 58.9375 C28.61386719 58.28394531 28.04023438 57.63039062 27.44921875 56.95703125 C21.0107744 49.99613557 12.08009282 43.75027142 2.5625 42.4375 C-1.42216082 42.4901276 -3.92683376 43.97891669 -7.3125 46 C-13.19008938 49.42926939 -13.19008938 49.42926939 -17 49.0625 C-25.35441303 46.59726337 -30.3354019 43.62514872 -34.8125 35.9375 C-36.1875 32.4375 -36.1875 32.4375 -36.8125 29.9375 C-37.534375 29.89625 -38.25625 29.855 -39 29.8125 C-43.0810215 28.54284887 -44.29781026 26.36027215 -46.8125 22.9375 C-48.24554064 20.07141871 -48.11894155 18.12449217 -47.8125 14.9375 C-45.8125 11.5625 -45.8125 11.5625 -43.8125 8.9375 C-46.02058542 10.30233958 -46.02058542 10.30233958 -47.8125 12.9375 C-48.53942132 17.47501939 -48.31262408 21.554804 -46.75 25.875 C-44.0645435 28.73371176 -41.49327808 29.61797578 -37.8125 30.9375 C-39.4375 31.6875 -39.4375 31.6875 -41.8125 31.9375 C-46.10182941 29.83660396 -48.75175367 27.58607063 -50.40234375 23 C-51.22415848 18.86744592 -50.94411736 14.98388935 -49.8125 10.9375 C-47.22838771 7.58513811 -44.73377204 5.46872677 -40.8125 3.9375 C-38.29363589 3.73894089 -35.8334732 3.61932156 -33.3125 3.5625 C-26.8672353 3.31156631 -21.6394142 2.06863876 -15.56640625 -0.1953125 C-10.26420355 -1.86494229 -5.20639027 -1.96685855 0 0 Z " fill="#FAFBFB" transform="translate(367.8125,74.0625)"/>
<path d="M0 0 C0.70125 0.144375 1.4025 0.28875 2.125 0.4375 C3.07375 0.623125 4.0225 0.80875 5 1 C6.051875 1.20625 7.10375 1.4125 8.1875 1.625 C10.94643572 2.26074106 10.94643572 2.26074106 13 1 C21.57892159 1 28.86862576 4.40939316 36 9 C37.8557718 10.9083717 39.39379859 12.86544287 41 15 C40.484375 14.731875 39.96875 14.46375 39.4375 14.1875 C36.33598585 12.67650593 33.17737194 11.34427274 30 10 C29.62875 10.8971875 29.62875 10.8971875 29.25 11.8125 C27.83629988 14.28647521 26.34944617 15.43370255 24 17 C25.66666667 13.66666667 27.33333333 10.33333333 29 7 C22.49141526 4.59494885 16.82672278 3.04950778 10 5 C7.61640153 6.13036629 6.0439735 7.27048397 4 9 C4 9.66 4 10.32 4 11 C5.32 9.68 6.64 8.36 8 7 C8.99 7.33 9.98 7.66 11 8 C10.34 10.31 9.68 12.62 9 15 C9.66 15 10.32 15 11 15 C11.33 13.02 11.66 11.04 12 9 C12.144375 9.61875 12.28875 10.2375 12.4375 10.875 C12.93152225 13.03258322 12.93152225 13.03258322 14 15 C14.33 13.68 14.66 12.36 15 11 C15.99 11 16.98 11 18 11 C18.99 10.67 19.98 10.34 21 10 C21.33 9.34 21.66 8.68 22 8 C22.66 8 23.32 8 24 8 C23.34 9.32 22.68 10.64 22 12 C21.01 12 20.02 12 19 12 C19.495 14.475 19.495 14.475 20 17 C16.37 17 12.74 17 9 17 C9 22.28 9 27.56 9 33 C8.67 33 8.34 33 8 33 C8 27.06 8 21.12 8 15 C5.3703125 14.5978125 5.3703125 14.5978125 2.6875 14.1875 C-6.2126388 12.81900521 -15.10615775 11.40873953 -24 10 C-24.33 10.66 -24.66 11.32 -25 12 C-23.60394531 11.94005859 -23.60394531 11.94005859 -22.1796875 11.87890625 C-17.05341313 11.8801975 -12.1357431 12.94292256 -7.125 13.9375 C-6.16335938 14.11990234 -5.20171875 14.30230469 -4.2109375 14.49023438 C2.86431173 15.86431173 2.86431173 15.86431173 4 17 C4.08651611 18.41570123 4.10704904 19.835595 4.09765625 21.25390625 C4.09443359 22.10791016 4.09121094 22.96191406 4.08789062 23.84179688 C4.07532227 25.18854492 4.07532227 25.18854492 4.0625 26.5625 C4.05798828 27.46419922 4.05347656 28.36589844 4.04882812 29.29492188 C4.03700225 31.53001314 4.0205222 33.76497437 4 36 C3.67 36 3.34 36 3 36 C2.67 30.39 2.34 24.78 2 19 C-13.98723534 15.93146056 -13.98723534 15.93146056 -30 13 C-29.67 12.01 -29.34 11.02 -29 10 C-32.11332248 10.66868314 -32.11332248 10.66868314 -33.1875 13.0625 C-33.455625 13.701875 -33.72375 14.34125 -34 15 C-33.35417969 14.95359375 -32.70835937 14.9071875 -32.04296875 14.859375 C-22.04999921 14.47660736 -12.63587779 16.55419616 -3 19 C-2 20 -2 20 -1.88647461 21.76586914 C-1.89171143 22.51473389 -1.89694824 23.26359863 -1.90234375 24.03515625 C-1.90556641 24.84404297 -1.90878906 25.65292969 -1.91210938 26.48632812 C-1.92467773 27.7615332 -1.92467773 27.7615332 -1.9375 29.0625 C-1.94201172 29.91650391 -1.94652344 30.77050781 -1.95117188 31.65039062 C-1.96299627 33.76695663 -1.98093231 35.88348685 -2 38 C-2.33 38 -2.66 38 -3 38 C-3 32.39 -3 26.78 -3 21 C-4.28390625 20.81824219 -5.5678125 20.63648438 -6.890625 20.44921875 C-19.26953104 18.69158149 -31.63792409 16.87223706 -44 15 C-44 18.3 -44 21.6 -44 25 C-44.66 25 -45.32 25 -46 25 C-46 21.04 -46 17.08 -46 13 C-45.34 13 -44.68 13 -44 13 C-43.67 11.02 -43.34 9.04 -43 7 C-44.65 7 -46.3 7 -48 7 C-47 4 -47 4 -44.1875 2.3125 C-35.26864078 -1.09122791 -26.87886854 0.90977243 -18.3984375 4.515625 C-16 6 -16 6 -14.96484375 8.12890625 C-14.48724609 9.05509766 -14.48724609 9.05509766 -14 10 C-11.75204379 10.66715259 -11.75204379 10.66715259 -9.1875 10.6875 C-8.29675781 10.74164063 -7.40601563 10.79578125 -6.48828125 10.8515625 C-5.25658203 10.92503906 -5.25658203 10.92503906 -4 11 C-2.32721001 11.3011022 -0.65521178 11.61378392 1 12 C1.309375 11.21625 1.61875 10.4325 1.9375 9.625 C3 7 3 7 4 5 C2.68 4.34 1.36 3.68 0 3 C0 2.01 0 1.02 0 0 Z " fill="#C2D5D1" transform="translate(360,134)"/>
<path d="M0 0 C2.47106819 2.13169401 3.42791822 4.06544735 5 7 C5.99 7 6.98 7 8 7 C8.66 5.02 9.32 3.04 10 1 C11.32 1 12.64 1 14 1 C14.25 3.3125 14.25 3.3125 14 6 C13.07960938 6.67289062 13.07960938 6.67289062 12.140625 7.359375 C9.58207373 9.32030845 8.80209442 11.01218651 7.5 13.9375 C5.75794046 17.60330626 4.28714715 20.47985385 1 23 C-4.28860587 24.76286862 -9.14114948 24.91120123 -14.1875 22.4375 C-19.7392849 17.62595309 -23.58275298 12.98315807 -26 6 C-26 5.01 -26 4.02 -26 3 C-8.61207618 -1.7809676 -8.61207618 -1.7809676 0 0 Z " fill="#437E73" transform="translate(357,96)"/>
<path d="M0 0 C16.72362707 0.50073177 33.34016019 1.45408694 50 3 C50 6.63 50 10.26 50 14 C47.99486328 14.07347656 47.99486328 14.07347656 45.94921875 14.1484375 C44.19529162 14.22347182 42.44138639 14.29901936 40.6875 14.375 C39.36588867 14.42140625 39.36588867 14.42140625 38.01757812 14.46875 C37.17001953 14.50742188 36.32246094 14.54609375 35.44921875 14.5859375 C34.66893311 14.6173584 33.88864746 14.6487793 33.0847168 14.68115234 C30.69844232 14.89587889 30.69844232 14.89587889 28 17 C24.43296386 17.39633735 22.48226858 17.25748827 19.29296875 15.5546875 C15.58859869 13.80576783 12.1460969 13.23720888 8.125 12.8125 C7.43664062 12.73064453 6.74828125 12.64878906 6.0390625 12.56445312 C4.36052643 12.36629262 2.68039519 12.18172213 1 12 C0.03929566 9.11788698 -0.10581883 7.30149956 -0.0625 4.3125 C-0.05347656 3.50425781 -0.04445313 2.69601563 -0.03515625 1.86328125 C-0.02355469 1.24839844 -0.01195312 0.63351563 0 0 Z " fill="#327266" transform="translate(297,161)"/>
<path d="M0 0 C8.14369045 -0.3837341 15.29162245 0.20878637 23 3 C24 4 24 4 24.54296875 6.24609375 C24 9 24 9 22.57666016 10.28173828 C20.53059371 11.63089127 18.44804211 12.85997977 16.3125 14.0625 C14.86938883 14.90463726 13.42794332 15.74963613 11.98828125 16.59765625 C11.29025391 16.99782959 10.59222656 17.39800293 9.87304688 17.81030273 C7.79205847 19.03984732 7.79205847 19.03984732 5.61328125 21.3515625 C1.45621487 23.97380766 -2.40698049 22.96571217 -7.125 22.3125 C-8.03121094 22.20744141 -8.93742187 22.10238281 -9.87109375 21.99414062 C-13.40933127 21.56693121 -16.60984557 21.13005148 -20 20 C-19.51749708 15.45068673 -19.51749708 15.45068673 -17.21484375 13.4453125 C-16.08755859 12.79175781 -16.08755859 12.79175781 -14.9375 12.125 C-10.74358535 9.55237504 -7.220907 6.67284653 -3.62890625 3.3203125 C-2 2 -2 2 0 2 C0 1.34 0 0.68 0 0 Z " fill="#39776C" transform="translate(401,192)"/>
<path d="M0 0 C14.63414634 0 14.63414634 0 20.875 5.5625 C23.54608326 9.02885724 23.66030758 12.32974754 23.41015625 16.6015625 C22.65955835 20.99077307 20.87693464 23.58677862 17.33984375 26.25 C11.168829 29.8993886 7.86685223 29 0 29 C0 19.43 0 9.86 0 0 Z " fill="#F2F6F5" transform="translate(215,247)"/>
<path d="M0 0 C3.68947211 5.53420817 2.98826538 12.62119617 2 19 C-0.25191827 22.59560431 -3.30783482 24.03853725 -7 26 C-8.44202588 26.86883425 -9.87915741 27.7458204 -11.3125 28.62890625 C-14.32638239 30.46733297 -17.34767912 32.28860116 -20.40234375 34.05859375 C-21.04679443 34.43298584 -21.69124512 34.80737793 -22.35522461 35.19311523 C-24 36 -24 36 -26 36 C-26 33.36 -26 30.72 -26 28 C-19.4 24.37 -12.8 20.74 -6 17 C-12.93 19.97 -12.93 19.97 -20 23 C-19.67 22.01 -19.34 21.02 -19 20 C-16.4375 18.8125 -16.4375 18.8125 -14 18 C-15.299375 18.433125 -15.299375 18.433125 -16.625 18.875 C-21.3125 20.4375 -21.3125 20.4375 -26 22 C-26.33 19.36 -26.66 16.72 -27 14 C-24.00074658 12.41524955 -21.00045992 10.83246479 -18 9.25 C-17.16082031 8.8065625 -16.32164062 8.363125 -15.45703125 7.90625 C-10.33508159 5.20630754 -5.18833101 2.57014546 0 0 Z " fill="#729E96" transform="translate(383,163)"/>
<path d="M0 0 C2.41881922 1.79460781 3.859613 3.12613036 4.34765625 6.1640625 C4.42306641 7.35128906 4.42306641 7.35128906 4.5 8.5625 C4.66813504 12.25606659 4.66813504 12.25606659 7.0625 15.0625 C7.701875 15.371875 8.34125 15.68125 9 16 C9.99 15.01 10.98 14.02 12 13 C11.67 14.98 11.34 16.96 11 19 C13.0745356 19.1490712 13.0745356 19.1490712 15 18 C14.88011719 19.10988281 14.88011719 19.10988281 14.7578125 20.2421875 C15.07331375 23.8348308 16.24186 24.73549573 18.875 27.125 C21.33274807 29.38894715 23.13099942 31.19649913 25 34 C24.625 36.6875 24.625 36.6875 24 39 C20.54526546 39.43261434 19.30299501 39.22689611 16.46484375 37.1015625 C15.63082031 36.28429687 14.79679687 35.46703125 13.9375 34.625 C11.08202383 31.85312021 8.6912999 29.55153945 5 28 C4.18071114 29.24556092 3.36984814 30.49666635 2.5625 31.75 C2.11003906 32.44609375 1.65757812 33.1421875 1.19140625 33.859375 C0.0391991 35.92957014 -0.54676982 37.68696324 -1 40 C2.28788824 36.88983545 4.83735988 33.98381075 7 30 C7.33 30.66 7.66 31.32 8 32 C6.73460313 34.94656699 5.04414851 37.53404306 3 40 C0.25 41.0625 0.25 41.0625 -2 41 C-2.33 40.67 -2.66 40.34 -3 40 C-2.78272178 34.56804447 -1.4065524 31.66393772 2.0390625 27.67578125 C3.19405516 26.02794957 3.19405516 26.02794957 2.8359375 23.98046875 C1.85897999 21.66590119 0.99887507 20.52425633 -1 19 C-3.1019601 18.39616721 -3.1019601 18.39616721 -5.375 18.125 C-9.9049226 17.23967311 -12.14306277 15.74973011 -15 12 C-15.8125 9.6875 -15.8125 9.6875 -16 8 C-15.236875 8.78375 -14.47375 9.5675 -13.6875 10.375 C-9.96421896 14.04212462 -9.96421896 14.04212462 -5.0625 15.3125 C-1.59515935 14.95868973 -0.24376226 14.675255 2 12 C2.50605388 7.44551506 1.99402048 4.11266723 0 0 Z " fill="#558A80" transform="translate(173,187)"/>
<path d="M0 0 C2.3125 1 2.3125 1 4 2 C4.99 1.34 5.98 0.68 7 0 C10.19161181 -0.4910172 11.49909317 -0.35948505 14.14453125 1.5390625 C16.65982148 4.87513165 16.44637236 7.75457782 16.25 11.75 C16.23195313 12.44738281 16.21390625 13.14476562 16.1953125 13.86328125 C16.14838554 15.57611539 16.07664605 17.28823824 16 19 C14.02 19 12.04 19 10 19 C9.67 15.04 9.34 11.08 9 7 C7.68 6.67 6.36 6.34 5 6 C4.67 10.29 4.34 14.58 4 19 C2.02 19 0.04 19 -2 19 C-2.33 15.04 -2.66 11.08 -3 7 C-4.32 6.67 -5.64 6.34 -7 6 C-7.33 10.29 -7.66 14.58 -8 19 C-9.98 19 -11.96 19 -14 19 C-14 13.06 -14 7.12 -14 1 C-11.69 1 -9.38 1 -7 1 C-4.46130539 -0.26934731 -2.82098771 -0.20149912 0 0 Z " fill="#F2F6F5" transform="translate(318,257)"/>
<path d="M0 0 C3.70202432 0.50424124 6.92594085 0.5625 10.75 0.5625 C10.75 6.5025 10.75 12.4425 10.75 18.5625 C8.77 18.5625 6.79 18.5625 4.75 18.5625 C4.75 17.9025 4.75 17.2425 4.75 16.5625 C3.76 17.2225 2.77 17.8825 1.75 18.5625 C-1.625 19.0625 -1.625 19.0625 -5.25 18.5625 C-8.95216842 15.33294883 -10.04732736 13.84609339 -10.8125 9 C-10.16429589 5.03875263 -9.06200626 3.37450626 -6.25 0.5625 C-3.79381282 -0.66559359 -2.69215244 -0.37085773 0 0 Z " fill="#F2F6F5" transform="translate(404.25,257.4375)"/>
<path d="M0 0 C-8.66666667 4.33333333 -17.33333333 8.66666667 -26 13 C-26 15.64 -26 18.28 -26 21 C-25.31292969 20.62746094 -24.62585938 20.25492188 -23.91796875 19.87109375 C-23.01691406 19.39800781 -22.11585938 18.92492187 -21.1875 18.4375 C-20.29417969 17.96183594 -19.40085937 17.48617187 -18.48046875 16.99609375 C-16 16 -16 16 -13 17 C-14.98 17.99 -16.96 18.98 -19 20 C-15.19952596 19.19900323 -12.18860467 17.59376482 -8.8046875 15.7421875 C-8.20914063 15.49726563 -7.61359375 15.25234375 -7 15 C-6.34 15.33 -5.68 15.66 -5 16 C-7.20716463 17.27289905 -9.41567485 18.5433605 -11.625 19.8125 C-12.24246094 20.16892578 -12.85992187 20.52535156 -13.49609375 20.89257812 C-14.10839844 21.24384766 -14.72070312 21.59511719 -15.3515625 21.95703125 C-15.96032227 22.3123291 -16.56908203 22.66762695 -17.19628906 23.03369141 C-19 24 -19 24 -22.3984375 25.26171875 C-25.1337341 26.69068438 -25.1337341 26.69068438 -25.59228516 28.96411133 C-25.94295316 31.44483215 -25.94295316 31.44483215 -26 35 C-21.32135308 32.46402074 -16.68721299 29.86741207 -12.08691406 27.19189453 C-10.25621054 26.14632895 -8.39201074 25.15987078 -6.5234375 24.18359375 C-1.2897118 21.19484905 -1.2897118 21.19484905 1.54882812 16.09033203 C2.29789713 11.38082819 2.24789603 6.75037971 2 2 C2.33 2 2.66 2 3 2 C3 6.95 3 11.9 3 17 C3.66 17 4.32 17 5 17 C5 17.66 5 18.32 5 19 C3.44628906 20.2175293 3.44628906 20.2175293 1.265625 21.57421875 C0.06099609 22.32928711 0.06099609 22.32928711 -1.16796875 23.09960938 C-2.02003906 23.62361328 -2.87210937 24.14761719 -3.75 24.6875 C-4.55566406 25.19216797 -5.36132812 25.69683594 -6.19140625 26.21679688 C-7.89038336 27.27497868 -9.60241493 28.31240452 -11.32495117 29.33178711 C-14.02932876 30.9497006 -14.02932876 30.9497006 -16.45043945 32.93579102 C-26.7287571 40.40446802 -38.52863647 38.83600141 -50.6875 38.5625 C-52.89776385 38.54449609 -55.10805435 38.529501 -57.31835938 38.51757812 C-69.33018556 38.40508583 -81.11385313 37.75517367 -93 36 C-92.67 35.34 -92.34 34.68 -92 34 C-91.34 34 -90.68 34 -90 34 C-90 31.69 -90 29.38 -90 27 C-89.67 27 -89.34 27 -89 27 C-88.67 29.64 -88.34 32.28 -88 35 C-68.32150451 35.66306249 -48.69253213 36.11862971 -29 36 C-28.67 27.75 -28.34 19.5 -28 11 C-19.8125 7.1875 -19.8125 7.1875 -17.26098633 6.00463867 C-13.36923045 4.18250312 -9.66333674 2.2569996 -6 0 C-2.44067797 -1.22033898 -2.44067797 -1.22033898 0 0 Z " fill="#D4E1DF" transform="translate(383,164)"/>
<path d="M0 0 C3.125 2 3.125 2 5 5 C5.42428472 8.26059903 5.12926924 10.91179432 4 14 C0.92232519 17.07767481 -1.73277811 18.2348822 -6 18.5625 C-9.00880261 18.38312908 -11.02230749 17.72386625 -13.5 16 C-16.28806101 12.65432678 -16.84677993 11.16048925 -16.53515625 6.93359375 C-15.63221605 3.67114558 -13.59110191 2.03586579 -11 0 C-7.47207833 -1.76396084 -3.73518197 -0.91290162 0 0 Z " fill="#F5F8F7" transform="translate(458,258)"/>
<path d="M0 0 C3.125 2 3.125 2 5 5 C5.42428472 8.26059903 5.12926924 10.91179432 4 14 C0.92232519 17.07767481 -1.73277811 18.2348822 -6 18.5625 C-9.00880261 18.38312908 -11.02230749 17.72386625 -13.5 16 C-16.28806101 12.65432678 -16.84677993 11.16048925 -16.53515625 6.93359375 C-15.63221605 3.67114558 -13.59110191 2.03586579 -11 0 C-7.47207833 -1.76396084 -3.73518197 -0.91290162 0 0 Z " fill="#F5F8F7" transform="translate(256,258)"/>
<path d="M0 0 C1.65 0 3.3 0 5 0 C5 2.64 5 5.28 5 8 C5.66 6.68 6.32 5.36 7 4 C8.485 4.495 8.485 4.495 10 5 C9.9278125 5.73605469 9.855625 6.47210938 9.78125 7.23046875 C9.64203125 8.69419922 9.64203125 8.69419922 9.5 10.1875 C9.36078125 11.63189453 9.36078125 11.63189453 9.21875 13.10546875 C9.01875156 15.75187667 8.96120817 18.34760865 9 21 C7.68 21.33 6.36 21.66 5 22 C3.828125 20.4375 2.65625 18.875 1.484375 17.3125 C-0.1691947 15.55839752 -0.1691947 15.55839752 -4 16 C-4.66 17.32 -5.32 18.64 -6 20 C-9.56484884 18.31683892 -12.86399994 16.30466264 -16.1875 14.1875 C-17.25355469 13.52105469 -18.31960938 12.85460937 -19.41796875 12.16796875 C-22 10 -22 10 -22.80078125 7.36328125 C-22.89939453 6.19345703 -22.89939453 6.19345703 -23 5 C-23.33 4.34 -23.66 3.68 -24 3 C-18.502363 4.8159164 -14.90726428 8.33258592 -10.62109375 12.1015625 C-7.99947588 14.39106115 -7.99947588 14.39106115 -4 14 C-4.33 12.02 -4.66 10.04 -5 8 C-4.34 8 -3.68 8 -3 8 C-3 6.35 -3 4.7 -3 3 C-2.34 3 -1.68 3 -1 3 C-0.67 2.01 -0.34 1.02 0 0 Z " fill="#4D857B" transform="translate(517,205)"/>
<path d="M0 0 C2.5625 2.25 2.5625 2.25 4 5 C4 6.65 4 8.3 4 10 C-0.29 10 -4.58 10 -9 10 C-8.67 10.66 -8.34 11.32 -8 12 C-4.95613276 12.08226668 -2.92824652 11.97608217 0 11 C0.99 11.66 1.98 12.32 3 13 C2 16 2 16 0.4375 17.1875 C-3.09254927 18.36418309 -6.36033807 18.67748163 -10 18 C-13.14249107 15.97047452 -14.63745366 14.53044369 -15.51171875 10.83984375 C-15.84834543 6.35896867 -15.3841806 4.49253923 -12.5625 0.875 C-8.54849151 -1.87092505 -4.47041414 -1.54386219 0 0 Z " fill="#E4ECEA" transform="translate(352,258)"/>
<path d="M0 0 C0.99 0.33 1.98 0.66 3 1 C2.01 1.680625 2.01 1.680625 1 2.375 C0.01 3.179375 0.01 3.179375 -1 4 C-1 4.66 -1 5.32 -1 6 C-0.443125 5.319375 0.11375 4.63875 0.6875 3.9375 C1.450625 3.298125 2.21375 2.65875 3 2 C5.625 2.3125 5.625 2.3125 8 3 C8.66 2.67 9.32 2.34 10 2 C9.67 3.32 9.34 4.64 9 6 C10.39605469 5.94005859 10.39605469 5.94005859 11.8203125 5.87890625 C16.94658687 5.8801975 21.8642569 6.94292256 26.875 7.9375 C27.83664062 8.11990234 28.79828125 8.30230469 29.7890625 8.49023438 C36.86431173 9.86431173 36.86431173 9.86431173 38 11 C38.08651611 12.41570123 38.10704904 13.835595 38.09765625 15.25390625 C38.09443359 16.10791016 38.09121094 16.96191406 38.08789062 17.84179688 C38.07532227 19.18854492 38.07532227 19.18854492 38.0625 20.5625 C38.05798828 21.46419922 38.05347656 22.36589844 38.04882812 23.29492188 C38.03700225 25.53001314 38.0205222 27.76497437 38 30 C37.67 30 37.34 30 37 30 C36.67 24.39 36.34 18.78 36 13 C20.01276466 9.93146056 20.01276466 9.93146056 4 7 C4.33 6.01 4.66 5.02 5 4 C1.88667752 4.66868314 1.88667752 4.66868314 0.8125 7.0625 C0.544375 7.701875 0.27625 8.34125 0 9 C0.64582031 8.95359375 1.29164063 8.9071875 1.95703125 8.859375 C11.95000079 8.47660736 21.36412221 10.55419616 31 13 C32 14 32 14 32.11352539 15.76586914 C32.10828857 16.51473389 32.10305176 17.26359863 32.09765625 18.03515625 C32.09443359 18.84404297 32.09121094 19.65292969 32.08789062 20.48632812 C32.07532227 21.7615332 32.07532227 21.7615332 32.0625 23.0625 C32.05798828 23.91650391 32.05347656 24.77050781 32.04882812 25.65039062 C32.03700373 27.76695663 32.01906769 29.88348685 32 32 C31.67 32 31.34 32 31 32 C31 26.39 31 20.78 31 15 C29.71609375 14.81824219 28.4321875 14.63648438 27.109375 14.44921875 C14.73046896 12.69158149 2.36207591 10.87223706 -10 9 C-10 12.3 -10 15.6 -10 19 C-10.66 19 -11.32 19 -12 19 C-12 15.04 -12 11.08 -12 7 C-11.34 7 -10.68 7 -10 7 C-9.67 5.35 -9.34 3.7 -9 2 C-7 2 -5 2 -3 2 C-3 2.33 -3 2.66 -3 3 C-2.01 2.01 -1.02 1.02 0 0 Z " fill="#BED2CE" transform="translate(326,140)"/>
<path d="M0 0 C2.31 0 4.62 0 7 0 C7.33 4.29 7.66 8.58 8 13 C9.65 12.67 11.3 12.34 13 12 C13.33 8.37 13.66 4.74 14 1 C15.98 1 17.96 1 20 1 C20.08160748 2.89510699 20.13946459 4.79124504 20.1875 6.6875 C20.23970703 8.27111328 20.23970703 8.27111328 20.29296875 9.88671875 C19.9614422 13.40974086 19.1527715 15.21494596 17 18 C12.9616907 19.3461031 9.22266539 19.57269422 5 19 C2.49839182 17.12379387 1.38054348 15.76108697 0 13 C-0.07092842 10.7927077 -0.08415025 8.58332548 -0.0625 6.375 C-0.05347656 5.18648438 -0.04445313 3.99796875 -0.03515625 2.7734375 C-0.02355469 1.85820312 -0.01195312 0.94296875 0 0 Z " fill="#EDF2F1" transform="translate(280,257)"/>
<path d="M0 0 C1.7109375 1.06640625 1.7109375 1.06640625 3 3 C3.2172101 5.64996326 3.28351554 8.05076558 3.1875 10.6875 C3.16719727 11.7403418 3.16719727 11.7403418 3.14648438 12.81445312 C3.11120182 14.54329829 3.05739583 16.27174765 3 18 C1.02 18 -0.96 18 -3 18 C-3.33 14.04 -3.66 10.08 -4 6 C-5.32 5.67 -6.64 5.34 -8 5 C-9.81115956 6.81115956 -9.38199448 9.61278227 -9.5625 12.0625 C-9.64628906 13.16722656 -9.73007812 14.27195312 -9.81640625 15.41015625 C-9.87699219 16.26480469 -9.93757813 17.11945313 -10 18 C-11.98 18 -13.96 18 -16 18 C-16 12.06 -16 6.12 -16 0 C-13.69 0 -11.38 0 -9 0 C-5.85000502 -1.57499749 -3.36459118 -0.70833498 0 0 Z " fill="#F6F8F8" transform="translate(482,258)"/>
<path d="M0 0 C1.7109375 1.06640625 1.7109375 1.06640625 3 3 C3.2172101 5.64996326 3.28351554 8.05076558 3.1875 10.6875 C3.16719727 11.7403418 3.16719727 11.7403418 3.14648438 12.81445312 C3.11120182 14.54329829 3.05739583 16.27174765 3 18 C1.02 18 -0.96 18 -3 18 C-3.33 14.04 -3.66 10.08 -4 6 C-7.63619656 4.91915479 -7.63619656 4.91915479 -10 5 C-10 9.29 -10 13.58 -10 18 C-11.98 18 -13.96 18 -16 18 C-16 12.06 -16 6.12 -16 0 C-13.69 0 -11.38 0 -9 0 C-5.85000502 -1.57499749 -3.36459118 -0.70833498 0 0 Z " fill="#EFF4F3" transform="translate(375,258)"/>
<path d="M0 0 C1.99390001 3.98780002 2.22686963 5.47147572 2.125 9.75 C2.10695313 10.73484375 2.08890625 11.7196875 2.0703125 12.734375 C2.03550781 13.85585937 2.03550781 13.85585937 2 15 C2.75925781 14.71125 3.51851563 14.4225 4.30078125 14.125 C5.29464844 13.75375 6.28851563 13.3825 7.3125 13 C8.29863281 12.62875 9.28476562 12.2575 10.30078125 11.875 C13 11 13 11 16 11 C15.67 11.99 15.34 12.98 15 14 C12.71484375 14.94921875 12.71484375 14.94921875 9.9375 15.6875 C8.55884766 16.06455078 8.55884766 16.06455078 7.15234375 16.44921875 C6.44207031 16.63097656 5.73179687 16.81273438 5 17 C5.54003662 17.14099121 6.08007324 17.28198242 6.63647461 17.42724609 C9.07242514 18.06818901 11.50491267 18.72141427 13.9375 19.375 C15.21270508 19.70757812 15.21270508 19.70757812 16.51367188 20.046875 C17.32255859 20.26601562 18.13144531 20.48515625 18.96484375 20.7109375 C19.7137085 20.90993652 20.46257324 21.10893555 21.23413086 21.31396484 C23 22 23 22 24 24 C16.61521626 23.42080128 10.04364954 21.27451183 3 19 C2.67 24.94 2.34 30.88 2 37 C3.299375 37.268125 4.59875 37.53625 5.9375 37.8125 C10.75064394 38.87444763 15.35837204 40.35403264 20 42 C15.44429227 43.51856924 11.31470643 42.4281062 6.625 41.75 C5.20574219 41.56630859 5.20574219 41.56630859 3.7578125 41.37890625 C-1.11874069 40.687148 -4.96919807 40.05311806 -9 37 C-8.67 36.01 -8.34 35.02 -8 34 C-6 33 -6 33 0 33 C0 22.11 0 11.22 0 0 Z " fill="#4B8479" transform="translate(500,56)"/>
<path d="M0 0 C10.01088771 1.75629609 17.12234069 6.67943854 23 15 C23 15.66 23 16.32 23 17 C22.34 17 21.68 17 21 17 C20.67 17.66 20.34 18.32 20 19 C19.46375 18.649375 18.9275 18.29875 18.375 17.9375 C15.17328648 16.67366572 13.29417633 17.10782724 10 18 C7.67780342 19.44730093 7.67780342 19.44730093 6 21 C7.15173355 18.53199953 8.04783565 16.95216435 10 15 C8.02 14.01 6.04 13.02 4 12 C3.67 12.66 3.34 13.32 3 14 C2.01 11.36 1.02 8.72 0 6 C-0.66 6 -1.32 6 -2 6 C-1.125 1.125 -1.125 1.125 0 0 Z " fill="#327266" transform="translate(182,184)"/>
<path d="M0 0 C1.28871665 1.93307497 2.54202443 3.8904687 3.75 5.875 C6.55733012 9.77406961 9.64292102 12.82146051 14 15 C18.18618599 15.42766537 21.88240621 15.44703752 25.8125 13.875 C28.50472023 11.56738266 30.18288819 9.02851968 32 6 C32.495 7.485 32.495 7.485 33 9 C34.01449219 8.93941406 35.02898437 8.87882812 36.07421875 8.81640625 C47.15102251 9.33442593 56.52305214 17.50955584 64 25 C64.61101562 25.54011719 65.22203125 26.08023438 65.8515625 26.63671875 C73.08894318 33.19662772 79.27484004 43.04719889 83 52 C82.6875 54.375 82.6875 54.375 82 56 C81.52691406 54.97261719 81.05382812 53.94523437 80.56640625 52.88671875 C76.33486917 43.93059737 71.76978492 36.33701645 65 29 C64.42636719 28.34644531 63.85273438 27.69289062 63.26171875 27.01953125 C56.8232744 20.05863557 47.89259282 13.81277142 38.375 12.5 C34.39033918 12.5526276 31.88566624 14.04141669 28.5 16.0625 C22.62241062 19.49176939 22.62241062 19.49176939 18.8125 19.125 C10.39163481 16.64015454 5.60516868 13.6500335 1 6 C-0.375 3 -0.375 3 -1 1 C-0.67 0.67 -0.34 0.34 0 0 Z " fill="#E6EDEC" transform="translate(332,104)"/>
<path d="M0 0 C4.78539084 2.11302972 7.70958456 4.38703623 9.85546875 9.3046875 C10.56900671 14.4258089 11.02272259 18.73619015 7.85546875 22.9921875 C7.19546875 23.4253125 6.53546875 23.8584375 5.85546875 24.3046875 C6.18546875 23.2734375 6.51546875 22.2421875 6.85546875 21.1796875 C8.24394092 16.17917542 8.68910738 12.82310072 6.10546875 8.1171875 C3.40432806 4.74076163 1.57779736 2.56303679 -2.80078125 1.90625 C-4.2084375 1.91785156 -4.2084375 1.91785156 -5.64453125 1.9296875 C-6.58296875 1.92195313 -7.52140625 1.91421875 -8.48828125 1.90625 C-11.52776394 2.3621724 -12.81447386 3.37319256 -15.14453125 5.3046875 C-15.80453125 5.3046875 -16.46453125 5.3046875 -17.14453125 5.3046875 C-19.6917084 10.08064465 -19.84518957 15.02864595 -19.14453125 20.3046875 C-17.14795998 24.16013548 -15.74745487 25.90273842 -12.14453125 28.3046875 C-9.80301122 28.68818463 -9.80301122 28.68818463 -7.26953125 28.8046875 C-3.54139946 29.10446418 -0.53374062 29.61008282 2.85546875 31.3046875 C3.18546875 30.6446875 3.51546875 29.9846875 3.85546875 29.3046875 C4.51546875 30.6246875 5.17546875 31.9446875 5.85546875 33.3046875 C-0.296875 33.40234375 -0.296875 33.40234375 -2.14453125 33.3046875 C-2.47453125 32.9746875 -2.80453125 32.6446875 -3.14453125 32.3046875 C-4.5380067 32.17267404 -5.93471577 32.07410717 -7.33203125 31.9921875 C-11.87703505 31.52251302 -14.61389801 30.33094456 -18.14453125 27.3046875 C-21.14453125 23.1046875 -21.14453125 23.1046875 -21.14453125 20.3046875 C-27.02023706 21.29171318 -31.82902177 22.52037301 -37.14453125 25.3046875 C-38.46453125 25.3046875 -39.78453125 25.3046875 -41.14453125 25.3046875 C-40.15453125 21.8396875 -40.15453125 21.8396875 -39.14453125 18.3046875 C-38.48453125 18.3046875 -37.82453125 18.3046875 -37.14453125 18.3046875 C-37.14453125 19.6246875 -37.14453125 20.9446875 -37.14453125 22.3046875 C-36.34015625 21.8096875 -35.53578125 21.3146875 -34.70703125 20.8046875 C-30.32450671 18.95941401 -26.82137894 19.02407664 -22.14453125 19.3046875 C-22.24765625 18.1496875 -22.35078125 16.9946875 -22.45703125 15.8046875 C-22.43866131 10.62436424 -20.51781185 7.15499769 -17.14453125 3.3046875 C-12.07486133 -1.07590107 -6.27520166 -2.03458269 0 0 Z " fill="#52887E" transform="translate(200.14453125,65.6953125)"/>
<path d="M0 0 C1.98 0 3.96 0 6 0 C6 2.31 6 4.62 6 7 C6.99 7 7.98 7 9 7 C9 8.65 9 10.3 9 12 C8.01 12 7.02 12 6 12 C6 14.31 6 16.62 6 19 C6.99 19 7.98 19 9 19 C9.33 20.65 9.66 22.3 10 24 C3.77419355 25.43672457 3.77419355 25.43672457 0.5625 23.625 C-1.71129289 19.80502795 -1.33381714 16.33962276 -1 12 C-1.66 12 -2.32 12 -3 12 C-3 10.35 -3 8.7 -3 7 C-2.01 7 -1.02 7 0 7 C0 4.69 0 2.38 0 0 Z " fill="#EEF3F2" transform="translate(383,251)"/>
<path d="M0 0 C0.66 0.99 1.32 1.98 2 3 C1.22914063 2.97679687 0.45828125 2.95359375 -0.3359375 2.9296875 C-1.84027344 2.90261719 -1.84027344 2.90261719 -3.375 2.875 C-4.37273437 2.85179687 -5.37046875 2.82859375 -6.3984375 2.8046875 C-9.16262173 2.72783152 -9.16262173 2.72783152 -11 5 C-11.33 4.34 -11.66 3.68 -12 3 C-15.68754757 3.49831724 -17.60490662 4.10067643 -20 7 C-19.835 6.360625 -19.67 5.72125 -19.5 5.0625 C-18.96073333 3.19173179 -18.96073333 3.19173179 -19 2 C-20.32 3.65 -21.64 5.3 -23 7 C-22.67 5.35 -22.34 3.7 -22 2 C-24.51083114 3.25541557 -24.87125446 4.50063488 -26 7 C-26.33 5.35 -26.66 3.7 -27 2 C-28.65 1.67 -30.3 1.34 -32 1 C-31 -2 -31 -2 -28.1875 -3.6875 C-18.55448503 -7.36377306 -8.67833083 -5.0176017 0 0 Z " fill="#6D9B92" transform="translate(344,140)"/>
<path d="M0 0 C1.98 0 3.96 0 6 0 C6 2.31 6 4.62 6 7 C7.32 7 8.64 7 10 7 C10 8.32 10 9.64 10 11 C8.68 11 7.36 11 6 11 C6 13.64 6 16.28 6 19 C7.32 19.33 8.64 19.66 10 20 C9.67 21.65 9.34 23.3 9 25 C3.5320197 25.36453202 3.5320197 25.36453202 1.3125 23.84375 C-0.51962482 21.27005085 -0.29770208 19.43489214 -0.1875 16.3125 C-0.16042969 15.31863281 -0.13335937 14.32476562 -0.10546875 13.30078125 C-0.07066406 12.54152344 -0.03585937 11.78226562 0 11 C-0.99 11 -1.98 11 -3 11 C-3 9.68 -3 8.36 -3 7 C-2.01 7 -1.02 7 0 7 C0 4.69 0 2.38 0 0 Z " fill="#F8FAFA" transform="translate(420,251)"/>
<path d="M0 0 C-0.33 1.32 -0.66 2.64 -1 4 C-3.31 4.33 -5.62 4.66 -8 5 C-8 6.98 -8 8.96 -8 11 C-5.69 11.66 -3.38 12.32 -1 13 C-0.67 14.32 -0.34 15.64 0 17 C-7.30627306 18.6398524 -7.30627306 18.6398524 -10.93359375 17.26953125 C-13.37977886 15.55074891 -14.80733815 13.72608616 -15.57421875 10.8359375 C-15.91054262 6.36656695 -15.36965647 4.47391856 -12.5625 0.875 C-8.56114839 -1.93650125 -4.53555245 -1.01797955 0 0 Z " fill="#F5F8F8" transform="translate(278,258)"/>
<path d="M0 0 C-0.3125 2.375 -0.3125 2.375 -1 5 C-1.99 5.66 -2.98 6.32 -4 7 C-4.99 6.01 -5.98 5.02 -7 4 C-6.34 3.01 -5.68 2.02 -5 1 C-5.66 1 -6.32 1 -7 1 C-7.33 1.99 -7.66 2.98 -8 4 C-8.99 4.33 -9.98 4.66 -11 5 C-11.99 6.485 -11.99 6.485 -13 8 C-13.33 7.01 -13.66 6.02 -14 5 C-14 6.32 -14 7.64 -14 9 C-14.99 8.67 -15.98 8.34 -17 8 C-17 6.68 -17 5.36 -17 4 C-17.33 5.32 -17.66 6.64 -18 8 C-18.66 8 -19.32 8 -20 8 C-19.67 5.69 -19.34 3.38 -19 1 C-20.94074861 1.27617533 -20.94074861 1.27617533 -23 2 C-23.99 3.485 -23.99 3.485 -25 5 C-25.66 4.67 -26.32 4.34 -27 4 C-20.32566647 -5.87801362 -9.6563067 -5.84460669 0 0 Z " fill="#437E73" transform="translate(389,141)"/>
<path d="M0 0 C10.78395621 -0.31460488 21.4928142 0.24641105 32.25 0.9375 C33.29403488 1.00284943 33.29403488 1.00284943 34.35916138 1.06951904 C46.29699652 1.82424913 46.29699652 1.82424913 51 3 C51 6.96 51 10.92 51 15 C53.475 15.495 53.475 15.495 56 16 C56 16.33 56 16.66 56 17 C54.98631348 16.97643433 54.98631348 16.97643433 53.95214844 16.95239258 C50.88485103 16.88996133 47.81768741 16.85098353 44.75 16.8125 C43.68652344 16.78736328 42.62304688 16.76222656 41.52734375 16.73632812 C39.99013672 16.72182617 39.99013672 16.72182617 38.421875 16.70703125 C37.00793457 16.68346558 37.00793457 16.68346558 35.56542969 16.65942383 C32.54358503 17.06059182 31.34241203 18.12454933 29 20 C25.14399755 20.41314312 22.90028661 20.55402253 19.5625 18.5 C19.046875 18.005 18.53125 17.51 18 17 C18.33 16.34 18.66 15.68 19 15 C19.99 15.66 20.98 16.32 22 17 C26.07490752 17.33957563 27.53001271 17.31332486 31 15 C33.0847168 14.77294922 33.0847168 14.77294922 35.44921875 14.8046875 C36.72055664 14.81435547 36.72055664 14.81435547 38.01757812 14.82421875 C39.33918945 14.84935547 39.33918945 14.84935547 40.6875 14.875 C42.02651367 14.88853516 42.02651367 14.88853516 43.39257812 14.90234375 C45.59516666 14.92590085 47.79761725 14.96177156 50 15 C50 11.37 50 7.74 50 4 C48.78376953 4.01740234 48.78376953 4.01740234 47.54296875 4.03515625 C46.43566406 4.04417969 45.32835937 4.05320313 44.1875 4.0625 C43.10855469 4.07410156 42.02960938 4.08570313 40.91796875 4.09765625 C37.8470362 4.02111257 34.88738369 3.82259889 31.8359375 3.5234375 C24.62700114 2.82496178 17.40764618 2.65979587 10.16992188 2.48242188 C9.14318359 2.44826172 8.11644531 2.41410156 7.05859375 2.37890625 C6.13361084 2.3538501 5.20862793 2.32879395 4.25561523 2.30297852 C2 2 2 2 0 0 Z " fill="#CDDCD9" transform="translate(297,160)"/>
<path d="M0 0 C2.9301585 2.63714265 5.0470421 5.58232367 7 9 C6.98046875 11.02734375 6.98046875 11.02734375 6 13 C3.34765625 14.4140625 3.34765625 14.4140625 0.0625 15.625 C-4.36861029 17.18444516 -4.36861029 17.18444516 -8 20 C-11.43547817 19.89102824 -12.77878421 19.2048018 -15.31640625 16.85546875 C-16.05761719 15.97503906 -16.79882812 15.09460938 -17.5625 14.1875 C-21.55542026 9.37437406 -21.55542026 9.37437406 -26 5 C-31.47233116 5 -34.80193544 6.58907255 -39 10 C-41.43950102 12.5827106 -43.7470113 15.25375342 -46 18 C-46.33 17.34 -46.66 16.68 -47 16 C-41.96489588 9.65891575 -36.98943281 3.73271391 -28.6484375 2.5078125 C-23.70562466 3.17461595 -21.87204987 5.28269419 -18.625 8.875 C-17.82642578 9.70837891 -17.82642578 9.70837891 -17.01171875 10.55859375 C-13.21727594 14.56544811 -13.21727594 14.56544811 -12 17 C-8.4682364 15.30506881 -5.26748441 13.2717622 -2 11.12109375 C0.00772679 9.99566877 1.75249188 9.44649157 4 9 C3.34 7.88625 2.68 6.7725 2 5.625 C0 2.25 0 2.25 0 0 Z " fill="#50877D" transform="translate(538,188)"/>
<path d="M0 0 C3 1 3 1 4.1875 2.875 C5 5 5 5 5 8 C5.15127402 9.56406528 5.31902522 11.12659252 5.5 12.6875 C5.5928125 13.49574219 5.685625 14.30398437 5.78125 15.13671875 C5.8534375 15.75160156 5.925625 16.36648437 6 17 C2.85076209 16.22147671 -0.2936568 15.42500585 -3.4375 14.625 C-4.33533203 14.40328125 -5.23316406 14.1815625 -6.15820312 13.953125 C-7.01220703 13.73398438 -7.86621094 13.51484375 -8.74609375 13.2890625 C-9.53685303 13.09006348 -10.3276123 12.89106445 -11.14233398 12.68603516 C-13 12 -13 12 -14 10 C-12.86111328 9.79697266 -12.86111328 9.79697266 -11.69921875 9.58984375 C-6.00466944 8.59158673 -6.00466944 8.59158673 -1.6015625 5.2421875 C-0.68012298 3.12380069 -0.68012298 3.12380069 0 0 Z " fill="#276B5E" transform="translate(518,62)"/>
<path d="M0 0 C5.497637 1.8159164 9.09273572 5.33258592 13.37890625 9.1015625 C16.00052412 11.39106115 16.00052412 11.39106115 20 11 C19.67 9.02 19.34 7.04 19 5 C20.32 5.33 21.64 5.66 23 6 C23 7.32 23 8.64 23 10 C24.62626404 11.38232443 26.2925002 12.71937515 28 14 C28 14.66 28 15.32 28 16 C29.65 15.34 31.3 14.68 33 14 C33 15.32 33 16.64 33 18 C31.68 18.33 30.36 18.66 29 19 C27.828125 17.4375 26.65625 15.875 25.484375 14.3125 C23.8308053 12.55839752 23.8308053 12.55839752 20 13 C19.34 14.32 18.68 15.64 18 17 C14.43515116 15.31683892 11.13600006 13.30466264 7.8125 11.1875 C6.74644531 10.52105469 5.68039062 9.85460937 4.58203125 9.16796875 C2 7 2 7 1.19921875 4.36328125 C1.10060547 3.19345703 1.10060547 3.19345703 1 2 C0.67 1.34 0.34 0.68 0 0 Z " fill="#4F867C" transform="translate(493,208)"/>
<path d="M0 0 C0.33 0 0.66 0 1 0 C1.98248524 4.0527516 2.08159574 7.83861737 2 12 C5.96 12.99 5.96 12.99 10 14 C10.66 12.02 11.32 10.04 12 8 C11.34 8 10.68 8 10 8 C10 7.34 10 6.68 10 6 C12.3125 3.8125 12.3125 3.8125 15 2 C15.99 2.33 16.98 2.66 18 3 C18 4.65 18 6.3 18 8 C17.01 8 16.02 8 15 8 C14.01 9.98 13.02 11.96 12 14 C16.455 15.98 16.455 15.98 21 18 C20.67 19.32 20.34 20.64 20 22 C17.453125 23.484375 17.453125 23.484375 14.25 24.75 C13.20328125 25.17796875 12.1565625 25.6059375 11.078125 26.046875 C8.16812485 26.94794104 6.01644053 27.20109604 3 27 C5.93189994 24.60926851 8.72143288 23.15892693 12.25 21.8125 C13.14203125 21.46832031 14.0340625 21.12414062 14.953125 20.76953125 C15.62859375 20.51558594 16.3040625 20.26164062 17 20 C14.38058783 18.25372522 12.96175123 17.61277612 10 17 C9.67 18.65 9.34 20.3 9 22 C8.06576355 18.98968256 7.95550089 18.13349732 9 15 C4.545 14.01 4.545 14.01 0 13 C0 8.71 0 4.42 0 0 Z " fill="#4C847A" transform="translate(523,53)"/>
<path d="M0 0 C4.81062969 2.15388474 7.99945672 5.63147489 11.6875 9.3125 C12.37650391 9.97701172 13.06550781 10.64152344 13.77539062 11.32617188 C14.43087891 11.97779297 15.08636719 12.62941406 15.76171875 13.30078125 C16.35944092 13.89028564 16.95716309 14.47979004 17.57299805 15.0871582 C19.27368129 17.36685936 19.63362938 19.20698752 20 22 C16.0456913 21.4812975 14.09391419 20.59378835 11.30078125 17.76171875 C10.64916016 17.10623047 9.99753906 16.45074219 9.32617188 15.77539062 C8.66166016 15.08638672 7.99714844 14.39738281 7.3125 13.6875 C6.63638672 13.01009766 5.96027344 12.33269531 5.26367188 11.63476562 C2.24452031 8.56153971 -0.22367009 5.96737358 -2 2 C-1.34 1.34 -0.68 0.68 0 0 Z " fill="#266A5D" transform="translate(176,202)"/>
<path d="M0 0 C6 1 6 1 7.875 2.6875 C9.36633241 5.75301662 9.48231822 7.62377244 9 11 C7.3125 13.8125 7.3125 13.8125 5 16 C3.35 16.33 1.7 16.66 0 17 C0 11.39 0 5.78 0 0 Z " fill="#296D60" transform="translate(222,253)"/>
<path d="M0 0 C0.33 0 0.66 0 1 0 C1 3.96 1 7.92 1 12 C2.299375 12.268125 3.59875 12.53625 4.9375 12.8125 C9.75064394 13.87444763 14.35837204 15.35403264 19 17 C14.44429227 18.51856924 10.31470643 17.4281062 5.625 16.75 C4.67882812 16.62753906 3.73265625 16.50507812 2.7578125 16.37890625 C-2.11874069 15.687148 -5.96919807 15.05311806 -10 12 C-9.67 11.01 -9.34 10.02 -9 9 C-6.04335481 7.5216774 -3.25770263 7.93967217 0 8 C0 5.36 0 2.72 0 0 Z " fill="#5F9188" transform="translate(501,81)"/>
<path d="M0 0 C6.76762616 -0.38307318 12.58212978 0.82311256 19 3 C20 4 20 4 20.54296875 6.24609375 C20 9 20 9 18.57666016 10.28173828 C16.53059371 11.63089127 14.44804211 12.85997977 12.3125 14.0625 C10.86938883 14.90463726 9.42794332 15.74963613 7.98828125 16.59765625 C7.29025391 16.99791016 6.59222656 17.39816406 5.87304688 17.81054688 C3.79261631 19.03979303 3.79261631 19.03979303 1.61328125 21.34765625 C-2.54154871 23.9747012 -6.40131635 23.0052763 -11.125 22.375 C-12.03121094 22.27832031 -12.93742187 22.18164062 -13.87109375 22.08203125 C-20.54935984 21.30042677 -20.54935984 21.30042677 -24 19 C-21.66658501 18.97265529 -19.33350051 18.95299763 -17 18.9375 C-15.0509375 18.92009766 -15.0509375 18.92009766 -13.0625 18.90234375 C-10.23652206 18.89791271 -7.71507957 19.24182926 -4.94921875 19.796875 C0.24139082 20.06384997 2.27635689 18.47368033 6.1875 15.3125 C7.07211914 14.64057617 7.07211914 14.64057617 7.97460938 13.95507812 C9.66958333 12.65980882 11.33771016 11.33684919 13 10 C13.96550781 9.23042969 14.93101562 8.46085938 15.92578125 7.66796875 C16.61027344 7.11753906 17.29476562 6.56710938 18 6 C12.06338584 3.58137942 6.31121503 2.0992895 0 1 C0 0.67 0 0.34 0 0 Z " fill="#CDDCD9" transform="translate(405,192)"/>
<path d="M0 0 C1.98 0 3.96 0 6 0 C6 5.94 6 11.88 6 18 C4.02 18 2.04 18 0 18 C0 12.06 0 6.12 0 0 Z " fill="#EFF4F3" transform="translate(433,258)"/>
<path d="M0 0 C-0.33 0.99 -0.66 1.98 -1 3 C-0.34 3 0.32 3 1 3 C0.67 3.66 0.34 4.32 0 5 C-0.99 4.67 -1.98 4.34 -3 4 C-3 4.66 -3 5.32 -3 6 C-2.01 6.33 -1.02 6.66 0 7 C-0.33 8.32 -0.66 9.64 -1 11 C-1.99 11 -2.98 11 -4 11 C-4.33 11.99 -4.66 12.98 -5 14 C-5.33 14 -5.66 14 -6 14 C-6.20625 13.05125 -6.4125 12.1025 -6.625 11.125 C-7.70833333 7.70833333 -7.70833333 7.70833333 -11.125 6.625 C-12.07375 6.41875 -13.0225 6.2125 -14 6 C-11.68060201 1.23913043 -11.68060201 1.23913043 -8.6875 0.1875 C-5.78023156 -0.01533268 -2.91336726 -0.06775273 0 0 Z " fill="#85ABA4" transform="translate(350,96)"/>
<path d="M0 0 C7.2724255 3.09751457 12.32219195 7.56499295 18 13 C18.61875 13.54398438 19.2375 14.08796875 19.875 14.6484375 C27.09273814 21.23128201 33.27323581 31.04334341 37 40 C36.6875 42.375 36.6875 42.375 36 44 C35.52691406 42.97261719 35.05382812 41.94523437 34.56640625 40.88671875 C30.33486917 31.93059737 25.76978492 24.33701645 19 17 C18.42636719 16.34644531 17.85273438 15.69289062 17.26171875 15.01953125 C13.17829417 10.6047548 8.49098422 7.57594497 3.35546875 4.48046875 C1 3 1 3 -1 1 C-0.67 0.67 -0.34 0.34 0 0 Z " fill="#BFD3CF" transform="translate(378,116)"/>
<path d="M0 0 C0.99 0.33 1.98 0.66 3 1 C2.34 3.31 1.68 5.62 1 8 C1.66 8 2.32 8 3 8 C3.33 6.02 3.66 4.04 4 2 C4.144375 2.61875 4.28875 3.2375 4.4375 3.875 C4.93152225 6.03258322 4.93152225 6.03258322 6 8 C6.33 6.68 6.66 5.36 7 4 C7.99 4 8.98 4 10 4 C10.99 3.67 11.98 3.34 13 3 C13.33 2.34 13.66 1.68 14 1 C14.66 1 15.32 1 16 1 C15.34 2.32 14.68 3.64 14 5 C13.01 5 12.02 5 11 5 C11.33 6.65 11.66 8.3 12 10 C8.37 10 4.74 10 1 10 C1 15.28 1 20.56 1 26 C0.67 26 0.34 26 0 26 C-0.33 18.41 -0.66 10.82 -1 3 C-1.99 3.495 -1.99 3.495 -3 4 C-2.67 3.01 -2.34 2.02 -2 1 C-1.34 0.67 -0.68 0.34 0 0 Z " fill="#B9CFCA" transform="translate(368,141)"/>
<path d="M0 0 C0.66 0.33 1.32 0.66 2 1 C-0.20716463 2.27289905 -2.41567485 3.5433605 -4.625 4.8125 C-5.24246094 5.16892578 -5.85992187 5.52535156 -6.49609375 5.89257812 C-7.41455078 6.41948242 -7.41455078 6.41948242 -8.3515625 6.95703125 C-8.96016113 7.30741455 -9.56875977 7.65779785 -10.19580078 8.01879883 C-11.88574051 8.93786077 -13.64570874 9.72471578 -15.40625 10.5 C-18.13378444 11.71857398 -18.13378444 11.71857398 -18.8046875 14.04296875 C-18.82789063 14.75066406 -18.85109375 15.45835937 -18.875 16.1875 C-18.91625 17.445625 -18.9575 18.70375 -19 20 C-19.33 20 -19.66 20 -20 20 C-20 15.71 -20 11.42 -20 7 C-11.69921875 2.21484375 -11.69921875 2.21484375 -9 1 C-8.01 1.33 -7.02 1.66 -6 2 C-7.98 2.99 -9.96 3.98 -12 5 C-8.19952596 4.19900323 -5.18860467 2.59376482 -1.8046875 0.7421875 C-1.20914062 0.49726563 -0.61359375 0.25234375 0 0 Z " fill="#E2EBE9" transform="translate(376,179)"/>
<path d="M0 0 C0.33 0 0.66 0 1 0 C1.33 3.63 1.66 7.26 2 11 C6.29 11.33 10.58 11.66 15 12 C15 12.33 15 12.66 15 13 C9.06 13 3.12 13 -3 13 C-3 17.62 -3 22.24 -3 27 C-3.33 27 -3.66 27 -4 27 C-4 23.04 -4 19.08 -4 15 C-10.27 15 -16.54 15 -23 15 C-23 14.67 -23 14.34 -23 14 C-16.73 14 -10.46 14 -4 14 C-4 13.01 -4 12.02 -4 11 C-2.68 11 -1.36 11 0 11 C0 7.37 0 3.74 0 0 Z " fill="#E0EAE8" transform="translate(296,162)"/>
<path d="M0 0 C0.99 0 1.98 0 3 0 C3.33 7.59 3.66 15.18 4 23 C1 22 1 22 -0.18896484 20.20800781 C-1.0764134 17.79196785 -1.15901424 16.2261994 -0.9765625 13.671875 C-0.89921875 12.47304687 -0.89921875 12.47304687 -0.8203125 11.25 C-0.75585938 10.425 -0.69140625 9.6 -0.625 8.75 C-0.56828125 7.90953125 -0.5115625 7.0690625 -0.453125 6.203125 C-0.31209668 4.13470958 -0.15738212 2.0672354 0 0 Z " fill="#488277" transform="translate(293,175)"/>
<path d="M0 0 C0.33 0 0.66 0 1 0 C1.33 2.64 1.66 5.28 2 8 C13.22 8.33 24.44 8.66 36 9 C36 9.33 36 9.66 36 10 C22.72286768 11.64495445 10.19302235 10.75073282 -3 9 C-2.67 8.34 -2.34 7.68 -2 7 C-1.34 7 -0.68 7 0 7 C0 4.69 0 2.38 0 0 Z " fill="#BBD0CC" transform="translate(293,191)"/>
<path d="M0 0 C-0.33 0.66 -0.66 1.32 -1 2 C-2.670625 2.433125 -2.670625 2.433125 -4.375 2.875 C-8.30394444 4.09432758 -9.01369281 4.57182524 -11 8 C-11.74084808 12.46687814 -11.47544717 16.68552842 -9.9375 20.9375 C-7.2520435 23.79621176 -4.68077808 24.68047578 -1 26 C-2.625 26.75 -2.625 26.75 -5 27 C-9.28932941 24.89910396 -11.93925367 22.64857063 -13.58984375 18.0625 C-14.41165848 13.92994592 -14.13161736 10.04638935 -13 6 C-9.48440064 1.43922245 -5.82970378 -2.08203706 0 0 Z " fill="#C9DAD7" transform="translate(331,79)"/>
<path d="M0 0 C0.33 0 0.66 0 1 0 C1 1.98 1 3.96 1 6 C4.0745356 5.2236068 4.0745356 5.2236068 6 3 C6 6.63 6 10.26 6 14 C4.68 14.33 3.36 14.66 2 15 C-0.87030999 12.53973429 -2.90326143 10.14510786 -5 7 C-3.68 7 -2.36 7 -1 7 C-0.67 4.69 -0.34 2.38 0 0 Z " fill="#276B5E" transform="translate(519,209)"/>
<path d="M0 0 C0.99 0 1.98 0 3 0 C3 0.66 3 1.32 3 2 C12.31714145 3.77356753 21.63522577 5.49241324 31 7 C29 9 29 9 27.1875 9.046875 C26.465625 8.94890625 25.74375 8.8509375 25 8.75 C24.19175781 8.64171875 23.38351562 8.5334375 22.55078125 8.421875 C20.07803446 8.01290616 17.63848217 7.52266502 15.1875 7 C9.50025396 5.79985674 3.79205735 5.37817557 -2 5 C-1.34 3.35 -0.68 1.7 0 0 Z " fill="#488177" transform="translate(328,144)"/>
<path d="M0 0 C8.3740573 -0.4531053 15.95113222 0.62472251 24 3 C25 4 25 4 25.11352539 5.76586914 C25.10828857 6.51473389 25.10305176 7.26359863 25.09765625 8.03515625 C25.09443359 8.84404297 25.09121094 9.65292969 25.08789062 10.48632812 C25.07951172 11.33646484 25.07113281 12.18660156 25.0625 13.0625 C25.05798828 13.91650391 25.05347656 14.77050781 25.04882812 15.65039062 C25.03700373 17.76695663 25.01906769 19.88348685 25 22 C24.67 22 24.34 22 24 22 C24 16.39 24 10.78 24 5 C22.51886719 4.80664062 21.03773438 4.61328125 19.51171875 4.4140625 C17.57025731 4.15144936 15.62885401 3.88840615 13.6875 3.625 C12.22280273 3.43550781 12.22280273 3.43550781 10.72851562 3.2421875 C9.79072266 3.11328125 8.85292969 2.984375 7.88671875 2.8515625 C7.02264404 2.73635254 6.15856934 2.62114258 5.26831055 2.50244141 C3 2 3 2 0 0 Z " fill="#D9E5E2" transform="translate(333,150)"/>
<path d="M0 0 C0.66 0.33 1.32 0.66 2 1 C1.814375 1.61875 1.62875 2.2375 1.4375 2.875 C0.76313824 5.04160178 0.76313824 5.04160178 2 7 C2.66 7.33 3.32 7.66 4 8 C1.03 8 -1.94 8 -5 8 C-5 11.3 -5 14.6 -5 18 C-5.66 18 -6.32 18 -7 18 C-7 14.04 -7 10.08 -7 6 C-6.34 6 -5.68 6 -5 6 C-4.67 4.35 -4.34 2.7 -4 1 C-3.01 1 -2.02 1 -1 1 C-0.67 0.67 -0.34 0.34 0 0 Z " fill="#CDDCD9" transform="translate(321,141)"/>
<path d="M0 0 C1.27230469 0.20367187 2.54460937 0.40734375 3.85546875 0.6171875 C4.83128906 0.78476563 5.80710937 0.95234375 6.8125 1.125 C5.8225 1.62 5.8225 1.62 4.8125 2.125 C4.8125 3.115 4.8125 4.105 4.8125 5.125 C3.06217156 4.98316304 1.31224466 4.83636571 -0.4375 4.6875 C-1.41203125 4.60628906 -2.3865625 4.52507812 -3.390625 4.44140625 C-5.75211753 4.17425416 -7.90651065 3.77128032 -10.1875 3.125 C-10.1875 2.465 -10.1875 1.805 -10.1875 1.125 C-6.25580336 -1.49613109 -4.58439982 -0.75705685 0 0 Z " fill="#619289" transform="translate(341.1875,151.875)"/>
<path d="M0 0 C2.27128539 0.28812527 4.54200406 0.58071837 6.8125 0.875 C7.49304443 0.96160889 8.17358887 1.04821777 8.87475586 1.13745117 C12.99388357 1.6779264 17.00403268 2.40999553 21.0625 3.3125 C24.87541986 4.0580112 25.87285612 4.04740958 29.6875 2.625 C30.450625 2.08875 31.21375 1.5525 32 1 C32 2.65 32 4.3 32 6 C26.97580985 7.67473005 21.99124405 5.98520859 16.86572266 5.04907227 C14.87726634 4.68791163 12.88631318 4.34423689 10.89453125 4.00195312 C9.02474609 3.66647461 9.02474609 3.66647461 7.1171875 3.32421875 C5.96847168 3.11885498 4.81975586 2.91349121 3.63623047 2.7019043 C2.76627441 2.47027588 1.89631836 2.23864746 1 2 C0.67 1.34 0.34 0.68 0 0 Z " fill="#ACC6C1" transform="translate(336,142)"/>
<path d="M0 0 C2.4375 0.1875 2.4375 0.1875 3.4375 1.1875 C3.625 3.625 3.625 3.625 3.4375 6.1875 C2.7775 6.8475 2.1175 7.5075 1.4375 8.1875 C-1.1875 7.8125 -1.1875 7.8125 -3.5625 7.1875 C-4.1875 4.8125 -4.1875 4.8125 -4.5625 2.1875 C-2.5625 0.1875 -2.5625 0.1875 0 0 Z " fill="#337367" transform="translate(452.5625,262.8125)"/>
<path d="M0 0 C2.4375 0.1875 2.4375 0.1875 3.4375 1.1875 C3.625 3.625 3.625 3.625 3.4375 6.1875 C2.7775 6.8475 2.1175 7.5075 1.4375 8.1875 C-1.1875 7.8125 -1.1875 7.8125 -3.5625 7.1875 C-4.1875 4.8125 -4.1875 4.8125 -4.5625 2.1875 C-2.5625 0.1875 -2.5625 0.1875 0 0 Z " fill="#337367" transform="translate(250.5625,262.8125)"/>
<path d="M0 0 C3.6875 0.3125 3.6875 0.3125 7 1 C7 2.32 7 3.64 7 5 C5.1875 6.0625 5.1875 6.0625 3 7 C2.01 6.67 1.02 6.34 0 6 C-2.56634861 5.77281504 -5.11678107 5.58391816 -7.6875 5.4375 C-8.7403418 5.37272461 -8.7403418 5.37272461 -9.81445312 5.30664062 C-11.54275206 5.2008264 -13.2713511 5.09993419 -15 5 C-15 4.67 -15 4.34 -15 4 C-14.16855469 3.96261719 -13.33710938 3.92523438 -12.48046875 3.88671875 C-11.39378906 3.82097656 -10.30710937 3.75523437 -9.1875 3.6875 C-8.10855469 3.62949219 -7.02960938 3.57148438 -5.91796875 3.51171875 C-2.69289391 2.94614338 -2.13878094 2.28799822 0 0 Z " fill="#598D84" transform="translate(396,206)"/>
<path d="M0 0 C2.5625 0.1875 2.5625 0.1875 4.5625 2.1875 C4.1875 4.8125 4.1875 4.8125 3.5625 7.1875 C1.1875 7.8125 1.1875 7.8125 -1.4375 8.1875 C-3.4375 6.1875 -3.4375 6.1875 -3.625 3.625 C-3.37291261 0.34786389 -3.27713611 0.25208739 0 0 Z " fill="#2F7064" transform="translate(404.4375,262.8125)"/>
<path d="M0 0 C2.02045442 0.60183749 4.02111039 1.27306096 6 2 C6.33 2.66 6.66 3.32 7 4 C4.33333333 6.66666667 1.66666667 9.33333333 -1 12 C-1.66 11.01 -2.32 10.02 -3 9 C-2.27231556 5.80938359 -1.46534977 2.93069953 0 0 Z " fill="#286B5F" transform="translate(186,196)"/>
<path d="M0 0 C6.45907037 -0.29359411 12.68620891 0.63566344 19 2 C20 3 20 3 20.11352539 4.85766602 C20.10828857 5.64842529 20.10305176 6.43918457 20.09765625 7.25390625 C20.09443359 8.10791016 20.09121094 8.96191406 20.08789062 9.84179688 C20.07951172 10.73962891 20.07113281 11.63746094 20.0625 12.5625 C20.05798828 13.46419922 20.05347656 14.36589844 20.04882812 15.29492188 C20.03700225 17.53001314 20.0205222 19.76497437 20 22 C19.67 22 19.34 22 19 22 C18.67 16.39 18.34 10.78 18 5 C9.09 3.02 9.09 3.02 0 1 C0 0.67 0 0.34 0 0 Z " fill="#CDDCD9" transform="translate(344,148)"/>
<path d="M0 0 C0.66 0.33 1.32 0.66 2 1 C1.360625 1.78375 0.72125 2.5675 0.0625 3.375 C-2.92217308 7.17367482 -3.4656035 9.15772359 -3 14 C-0.50991243 18.88440253 1.95277424 20.93522583 7 23 C6.67 23.66 6.34 24.32 6 25 C2.20109305 23.38478778 -1.14434894 21.90912925 -4 18.875 C-5.50705362 14.54222085 -5.80842763 10.52575113 -5 6 C-3.57559918 3.49246106 -2.12009964 2.01409466 0 0 Z " fill="#488176" transform="translate(324,81)"/>
<path d="M0 0 C1.17755859 0.59748047 1.17755859 0.59748047 2.37890625 1.20703125 C7.86043293 3.97133489 13.31712575 6.67518781 19 9 C18.67 9.66 18.34 10.32 18 11 C17.46375 10.649375 16.9275 10.29875 16.375 9.9375 C13.17328648 8.67366572 11.29417633 9.10782724 8 10 C5.67780342 11.44730093 5.67780342 11.44730093 4 13 C5.15173355 10.53199953 6.04783565 8.95216435 8 7 C6.02 6.01 4.04 5.02 2 4 C1.67 4.66 1.34 5.32 1 6 C0.67 4.02 0.34 2.04 0 0 Z " fill="#53897F" transform="translate(184,192)"/>
<path d="M0 0 C1.28871665 1.93307497 2.54202443 3.8904687 3.75 5.875 C8.22357037 12.08829218 11.84303276 14.40741018 19.2421875 15.73828125 C19.82226562 15.82464844 20.40234375 15.91101563 21 16 C17.97290322 17.75148613 17.25402975 18.04233829 13.625 17.4375 C5.21828825 14.10380396 2.50773342 8.99328634 -1 1 C-0.67 0.67 -0.34 0.34 0 0 Z " fill="#C3D6D2" transform="translate(332,104)"/>
<path d="M0 0 C8.48725814 3.61494328 14.57798664 9.49485378 21 16 C20.67 16.66 20.34 17.32 20 18 C19.55011719 17.50371094 19.10023438 17.00742188 18.63671875 16.49609375 C13.96868766 11.56612905 9.14164286 7.93162455 3.3203125 4.4453125 C1 3 1 3 -1 1 C-0.67 0.67 -0.34 0.34 0 0 Z " fill="#CCDCD9" transform="translate(378,116)"/>
<path d="M0 0 C1.67542976 0.28604898 3.34385343 0.61781233 5 1 C5 2.65 5 4.3 5 6 C2.625 6.625 2.625 6.625 0 7 C-0.66 6.34 -1.32 5.68 -2 5 C-1.46428571 1.46428571 -1.46428571 1.46428571 0 0 Z " fill="#F4F7F6" transform="translate(434,247)"/>
<path d="M0 0 C0.66 0 1.32 0 2 0 C1.859375 1.828125 1.859375 1.828125 1 4 C-1.546875 5.484375 -1.546875 5.484375 -4.75 6.75 C-6.32007813 7.39195313 -6.32007813 7.39195313 -7.921875 8.046875 C-10.83187515 8.94794104 -12.98355947 9.20109604 -16 9 C-13.10357159 6.64917788 -10.34643669 5.16480594 -6.875 3.8125 C-5.57175781 3.29623047 -5.57175781 3.29623047 -4.2421875 2.76953125 C-2 2 -2 2 0 2 C0 1.34 0 0.68 0 0 Z " fill="#598D83" transform="translate(542,71)"/>
<path d="M0 0 C-0.59927826 3.35595828 -1.84622436 5.37801226 -4 8 C-3.67 6.35 -3.34 4.7 -3 3 C-5.51083114 4.25541557 -5.87125446 5.50063488 -7 8 C-7.33 5.36 -7.66 2.72 -8 0 C-4.94736336 -0.98120464 -3.05263664 -0.98120464 0 0 Z " fill="#77A299" transform="translate(325,139)"/>
<path d="M0 0 C3 1 3 1 4.1875 2.875 C5.63574394 6.66271493 5 10.97273446 5 15 C3.47700477 12.06279492 2.19899698 9.0831351 1 6 C0.34 6 -0.32 6 -1 6 C-1.042721 4.33388095 -1.04063832 2.66617115 -1 1 C-0.67 0.67 -0.34 0.34 0 0 Z " fill="#4A8378" transform="translate(518,62)"/>
<path d="M0 0 C0.99 0.33 1.98 0.66 3 1 C2.67 1.66 2.34 2.32 2 3 C1.84733388 4.73868744 1.75067404 6.48247501 1.68359375 8.2265625 C1.64169922 9.2578125 1.59980469 10.2890625 1.55664062 11.3515625 C1.49766602 12.97191406 1.49766602 12.97191406 1.4375 14.625 C1.39431641 15.71296875 1.35113281 16.8009375 1.30664062 17.921875 C1.2003547 20.6144517 1.09831943 23.30712253 1 26 C0.67 26 0.34 26 0 26 C-0.33 18.41 -0.66 10.82 -1 3 C-1.99 3.495 -1.99 3.495 -3 4 C-2.67 3.01 -2.34 2.02 -2 1 C-1.34 0.67 -0.68 0.34 0 0 Z " fill="#E9F0EE" transform="translate(368,141)"/>
<path d="M0 0 C0.33 0 0.66 0 1 0 C1.33 2.64 1.66 5.28 2 8 C3.6396875 7.938125 3.6396875 7.938125 5.3125 7.875 C9 8 9 8 12 10 C1.44191344 10.18451025 1.44191344 10.18451025 -3 9 C-2.67 8.34 -2.34 7.68 -2 7 C-1.34 7 -0.68 7 0 7 C0 4.69 0 2.38 0 0 Z " fill="#D2E0DD" transform="translate(293,191)"/>
<path d="M0 0 C2.72869407 0.03287583 5.2966618 0.56397771 8 1 C7.67 2.32 7.34 3.64 7 5 C4.03 4.67 1.06 4.34 -2 4 C-2 2 -2 2 0 0 Z " fill="#8CB0AA" transform="translate(408,197)"/>
<path d="M0 0 C0.66 0 1.32 0 2 0 C2 3.3 2 6.6 2 10 C-0.475 9.01 -0.475 9.01 -3 8 C-2.67 6.02 -2.34 4.04 -2 2 C-1.34 2 -0.68 2 0 2 C0 1.34 0 0.68 0 0 Z " fill="#427D72" transform="translate(516,206)"/>
<path d="M0 0 C0.804375 0.495 0.804375 0.495 1.625 1 C6.07053235 2.87180309 10.41564669 2.07867137 15 1 C12.57526306 4.10366328 11.48536323 4.9393296 7.5 5.4375 C3.93778361 4.99222295 2.46005908 4.55846145 0 2 C0 1.34 0 0.68 0 0 Z " fill="#D2E0DD" transform="translate(315,175)"/>
<path d="M0 0 C3.34373475 0.55728913 6.03312999 1.35173889 9 3 C7.68 3.99 6.36 4.98 5 6 C2.5 4.6875 2.5 4.6875 0 3 C0 2.01 0 1.02 0 0 Z " fill="#9DBCB6" transform="translate(360,134)"/>
<path d="M0 0 C4.54805635 -0.17835515 7.8794254 0.00214565 12 2 C12.33 1.34 12.66 0.68 13 0 C13.66 1.32 14.32 2.64 15 4 C9.01006953 4.3152595 5.36439644 3.68219822 0 1 C0 0.67 0 0.34 0 0 Z " fill="#52887E" transform="translate(191,95)"/>
<path d="M0 0 C0.33 0 0.66 0 1 0 C1 4.95 1 9.9 1 15 C1.66 15 2.32 15 3 15 C3 15.66 3 16.32 3 17 C0.625 18.6875 0.625 18.6875 -2 20 C-2.66 19.67 -3.32 19.34 -4 19 C-3.27876953 18.51080078 -3.27876953 18.51080078 -2.54296875 18.01171875 C-0.17627334 14.92602726 -0.42700473 11.55844033 -0.3125 7.8125 C-0.27833984 7.06291016 -0.24417969 6.31332031 -0.20898438 5.54101562 C-0.12665706 3.69453162 -0.06164719 1.84729006 0 0 Z " fill="#DFE8E7" transform="translate(385,166)"/>
<path d="M0 0 C0.33 0 0.66 0 1 0 C0.67 5.28 0.34 10.56 0 16 C-0.66 16 -1.32 16 -2 16 C-2 12.04 -2 8.08 -2 4 C-1.34 4 -0.68 4 0 4 C0 2.68 0 1.36 0 0 Z " fill="#A0BDB8" transform="translate(316,143)"/>
<path d="M0 0 C5.94 0.99 5.94 0.99 12 2 C12 2.66 12 3.32 12 4 C7.71 3.67 3.42 3.34 -1 3 C-0.67 2.01 -0.34 1.02 0 0 Z " fill="#317265" transform="translate(336,143)"/>
<path d="M0 0 C0.33 0 0.66 0 1 0 C1.17563129 4.4785979 1.22085338 8.02584132 -1 12 C-1.99 12.33 -2.98 12.66 -4 13 C-3.52343588 11.20763933 -3.04366502 9.41613103 -2.5625 7.625 C-2.29566406 6.62726563 -2.02882813 5.62953125 -1.75390625 4.6015625 C-1 2 -1 2 0 0 Z " fill="#93B5AE" transform="translate(374,83)"/>
<path d="M0 0 C4.22435427 1.56457565 6.49058647 4.343426 9 8 C8.8125 10.875 8.8125 10.875 8 13 C7.01 12.34 6.02 11.68 5 11 C5.66 11 6.32 11 7 11 C5.07848152 6.86873527 2.95749791 3.46741134 0 0 Z " fill="#4C847A" transform="translate(189,213)"/>
<path d="M0 0 C3.6875 0.3125 3.6875 0.3125 7 1 C7 2.32 7 3.64 7 5 C3.7 4.34 0.4 3.68 -3 3 C-2.01 2.01 -1.02 1.02 0 0 Z " fill="#8AAFA8" transform="translate(396,206)"/>
<path d="M0 0 C-0.33 0.99 -0.66 1.98 -1 3 C-2.99609375 3.80078125 -2.99609375 3.80078125 -5.4375 4.3125 C-6.24058594 4.49425781 -7.04367187 4.67601563 -7.87109375 4.86328125 C-8.92490234 4.93095703 -8.92490234 4.93095703 -10 5 C-10.66 4.34 -11.32 3.68 -12 3 C-10.56445975 2.49440092 -9.1264798 1.9957251 -7.6875 1.5 C-6.88699219 1.2215625 -6.08648437 0.943125 -5.26171875 0.65625 C-3 0 -3 0 0 0 Z " fill="#52887E" transform="translate(516,67)"/>
<path d="M0 0 C0.66 0 1.32 0 2 0 C2.50559908 1.43554025 3.0042749 2.8735202 3.5 4.3125 C3.7784375 5.11300781 4.056875 5.91351563 4.34375 6.73828125 C5 9 5 9 5 12 C4.34 12 3.68 12 3 12 C2.49166409 10.75336669 1.99368855 9.50250613 1.5 8.25 C1.2215625 7.55390625 0.943125 6.8578125 0.65625 6.140625 C0 4 0 4 0 0 Z " fill="#4B8378" transform="translate(194,74)"/>
<path d="M0 0 C0.66 0 1.32 0 2 0 C2.625 2.3125 2.625 2.3125 3 5 C2.01 6.485 2.01 6.485 1 8 C0.67 7.34 0.34 6.68 0 6 C-0.66 6 -1.32 6 -2 6 C-1.125 1.125 -1.125 1.125 0 0 Z " fill="#52887E" transform="translate(182,184)"/>
<path d="M0 0 C4.16138263 -0.08159574 7.9472484 0.01751476 12 1 C8.54785147 3.30143236 7.76520676 3.13833854 3.8125 2.625 C2.46091797 2.45871094 2.46091797 2.45871094 1.08203125 2.2890625 C0.39496094 2.19367188 -0.29210937 2.09828125 -1 2 C-0.67 1.34 -0.34 0.68 0 0 Z " fill="#A3C0BA" transform="translate(335,146)"/>
<path d="M0 0 C0 1.65 0 3.3 0 5 C-3 6 -3 6 -5.1875 5.0625 C-5.785625 4.711875 -6.38375 4.36125 -7 4 C-1.125 0 -1.125 0 0 0 Z " fill="#87ACA5" transform="translate(368,143)"/>
<path d="M0 0 C2.97 0 5.94 0 9 0 C6 3 6 3 3.3125 3.1875 C2.1678125 3.0946875 2.1678125 3.0946875 1 3 C0.67 2.01 0.34 1.02 0 0 Z " fill="#2F7064" transform="translate(343,268)"/>
<path d="M0 0 C2.02045442 0.60183749 4.02111039 1.27306096 6 2 C6.33 2.66 6.66 3.32 7 4 C4 4 1 4 -2 4 C-1.34 2.68 -0.68 1.36 0 0 Z " fill="#347367" transform="translate(186,196)"/>
<path d="M0 0 C-0.33 0.99 -0.66 1.98 -1 3 C-3.31 3.33 -5.62 3.66 -8 4 C-8.33 3.34 -8.66 2.68 -9 2 C-3.375 0 -3.375 0 0 0 Z " fill="#D9E5E3" transform="translate(358,119)"/>
<path d="M0 0 C3.43595166 1.52708963 6.11912454 3.59927045 9 6 C5.21213403 5.4739075 2.82847776 4.61896089 0 2 C0 1.34 0 0.68 0 0 Z " fill="#5C8F86" transform="translate(187,220)"/>
<path d="M0 0 C0.928125 0.2784375 0.928125 0.2784375 1.875 0.5625 C4.04160178 1.23686176 4.04160178 1.23686176 6 0 C5.67 1.65 5.34 3.3 5 5 C3.35 5 1.7 5 0 5 C0 3.35 0 1.7 0 0 Z " fill="#C9DAD6" transform="translate(330,142)"/>
<path d="M0 0 C0.99 0.33 1.98 0.66 3 1 C2.34 3.31 1.68 5.62 1 8 C0.34 7.67 -0.32 7.34 -1 7 C-1 5.68 -1 4.36 -1 3 C-1.99 3.495 -1.99 3.495 -3 4 C-2.67 3.01 -2.34 2.02 -2 1 C-1.34 0.67 -0.68 0.34 0 0 Z " fill="#CFDEDB" transform="translate(368,141)"/>
<path d="M0 0 C-3.44450737 2.29633824 -5.93812283 2.54016485 -10 3 C-4.37755102 -1.45918367 -4.37755102 -1.45918367 0 0 Z " fill="#52887E" transform="translate(536,77)"/>
</svg>
